<mxfile host="app.diagrams.net" agent="Mozilla/5.0 (Windows NT 10.0; Win64; x64) AppleWebKit/537.36 (KHTML, like Gecko) Chrome/130.0.0.0 Safari/537.36 Edg/130.0.0.0" version="24.8.3">
  <diagram name="Page-1" id="b5b7bab2-c9e2-2cf4-8b2a-24fd1a2a6d21">
    <mxGraphModel dx="1603" dy="945" grid="1" gridSize="10" guides="1" tooltips="1" connect="1" arrows="1" fold="1" page="1" pageScale="1" pageWidth="827" pageHeight="1169" background="none" math="0" shadow="0">
      <root>
        <mxCell id="0" />
        <mxCell id="1" parent="0" />
        <mxCell id="6e0c8c40b5770093-72" value="" style="shape=folder;fontStyle=1;spacingTop=10;tabWidth=194;tabHeight=22;tabPosition=left;html=1;rounded=0;shadow=0;comic=0;labelBackgroundColor=none;strokeWidth=1;fillColor=none;fontFamily=Verdana;fontSize=10;align=center;" parent="1" vertex="1">
          <mxGeometry x="300" y="90" width="1001" height="1050" as="geometry" />
        </mxCell>
        <mxCell id="6e0c8c40b5770093-73" value="Waste Management System" style="text;html=1;align=left;verticalAlign=top;spacingTop=-4;fontSize=10;fontFamily=Verdana" parent="1" vertex="1">
          <mxGeometry x="330" y="90" width="130" height="20" as="geometry" />
        </mxCell>
        <mxCell id="4fz09WtrM1QGdSj1qNqo-1" value="" style="shape=folder;fontStyle=1;spacingTop=10;tabWidth=40;tabHeight=14;tabPosition=left;html=1;whiteSpace=wrap;" vertex="1" parent="1">
          <mxGeometry x="370" y="230" width="220" height="150" as="geometry" />
        </mxCell>
        <mxCell id="4fz09WtrM1QGdSj1qNqo-2" value="" style="shape=folder;fontStyle=1;spacingTop=10;tabWidth=40;tabHeight=14;tabPosition=left;html=1;whiteSpace=wrap;" vertex="1" parent="1">
          <mxGeometry x="370" y="410" width="220" height="160" as="geometry" />
        </mxCell>
        <mxCell id="4fz09WtrM1QGdSj1qNqo-3" value="" style="shape=folder;fontStyle=1;spacingTop=10;tabWidth=40;tabHeight=14;tabPosition=left;html=1;whiteSpace=wrap;" vertex="1" parent="1">
          <mxGeometry x="630" y="940" width="190" height="180" as="geometry" />
        </mxCell>
        <mxCell id="4fz09WtrM1QGdSj1qNqo-4" value="" style="shape=folder;fontStyle=1;spacingTop=10;tabWidth=40;tabHeight=14;tabPosition=left;html=1;whiteSpace=wrap;" vertex="1" parent="1">
          <mxGeometry x="620" y="134.5" width="220" height="155.5" as="geometry" />
        </mxCell>
        <mxCell id="4fz09WtrM1QGdSj1qNqo-5" value="" style="shape=folder;fontStyle=1;spacingTop=10;tabWidth=40;tabHeight=14;tabPosition=left;html=1;whiteSpace=wrap;" vertex="1" parent="1">
          <mxGeometry x="370" y="600" width="220" height="170" as="geometry" />
        </mxCell>
        <mxCell id="4fz09WtrM1QGdSj1qNqo-6" value="" style="shape=folder;fontStyle=1;spacingTop=10;tabWidth=40;tabHeight=14;tabPosition=left;html=1;whiteSpace=wrap;" vertex="1" parent="1">
          <mxGeometry x="370" y="800" width="220" height="180" as="geometry" />
        </mxCell>
        <mxCell id="4fz09WtrM1QGdSj1qNqo-14" value="JWT Identity Service" style="shape=folder;fontStyle=1;spacingTop=10;tabWidth=40;tabHeight=14;tabPosition=left;html=1;whiteSpace=wrap;" vertex="1" parent="1">
          <mxGeometry x="990" y="650" width="190" height="60" as="geometry" />
        </mxCell>
        <mxCell id="4fz09WtrM1QGdSj1qNqo-15" value="Service Registry" style="shape=folder;fontStyle=1;spacingTop=10;tabWidth=40;tabHeight=14;tabPosition=left;html=1;whiteSpace=wrap;" vertex="1" parent="1">
          <mxGeometry x="990" y="400" width="190" height="60" as="geometry" />
        </mxCell>
        <mxCell id="4fz09WtrM1QGdSj1qNqo-16" value="API Gateway" style="shape=folder;fontStyle=1;spacingTop=10;tabWidth=40;tabHeight=14;tabPosition=left;html=1;whiteSpace=wrap;" vertex="1" parent="1">
          <mxGeometry x="990" y="524" width="190" height="60" as="geometry" />
        </mxCell>
        <mxCell id="4fz09WtrM1QGdSj1qNqo-17" style="edgeStyle=orthogonalEdgeStyle;rounded=0;orthogonalLoop=1;jettySize=auto;html=1;exitX=0;exitY=0;exitDx=0;exitDy=14;exitPerimeter=0;fillColor=#f8cecc;strokeColor=#b85450;" edge="1" parent="1" source="4fz09WtrM1QGdSj1qNqo-15">
          <mxGeometry relative="1" as="geometry">
            <mxPoint x="810" y="300" as="targetPoint" />
            <Array as="points">
              <mxPoint x="810" y="414" />
            </Array>
          </mxGeometry>
        </mxCell>
        <mxCell id="4fz09WtrM1QGdSj1qNqo-18" style="edgeStyle=orthogonalEdgeStyle;rounded=0;orthogonalLoop=1;jettySize=auto;html=1;exitX=0;exitY=0;exitDx=0;exitDy=25.5;exitPerimeter=0;entryX=0;entryY=0;entryDx=220;entryDy=82;entryPerimeter=0;fillColor=#f8cecc;strokeColor=#b85450;" edge="1" parent="1" source="4fz09WtrM1QGdSj1qNqo-15" target="4fz09WtrM1QGdSj1qNqo-1">
          <mxGeometry relative="1" as="geometry">
            <Array as="points">
              <mxPoint x="720" y="425" />
              <mxPoint x="720" y="317" />
              <mxPoint x="590" y="317" />
            </Array>
          </mxGeometry>
        </mxCell>
        <mxCell id="4fz09WtrM1QGdSj1qNqo-19" style="edgeStyle=orthogonalEdgeStyle;rounded=0;orthogonalLoop=1;jettySize=auto;html=1;exitX=0;exitY=0;exitDx=0;exitDy=37;exitPerimeter=0;fillColor=#f8cecc;strokeColor=#b85450;" edge="1" parent="1" source="4fz09WtrM1QGdSj1qNqo-15">
          <mxGeometry relative="1" as="geometry">
            <mxPoint x="590" y="487" as="targetPoint" />
            <Array as="points">
              <mxPoint x="720" y="437" />
              <mxPoint x="720" y="487" />
            </Array>
          </mxGeometry>
        </mxCell>
        <mxCell id="4fz09WtrM1QGdSj1qNqo-20" style="edgeStyle=orthogonalEdgeStyle;rounded=0;orthogonalLoop=1;jettySize=auto;html=1;exitX=0;exitY=0;exitDx=0;exitDy=37;exitPerimeter=0;fillColor=#f8cecc;strokeColor=#b85450;" edge="1" parent="1" source="4fz09WtrM1QGdSj1qNqo-15">
          <mxGeometry relative="1" as="geometry">
            <mxPoint x="590" y="677" as="targetPoint" />
            <Array as="points">
              <mxPoint x="990" y="450" />
              <mxPoint x="740" y="450" />
              <mxPoint x="740" y="677" />
            </Array>
          </mxGeometry>
        </mxCell>
        <mxCell id="4fz09WtrM1QGdSj1qNqo-21" style="edgeStyle=orthogonalEdgeStyle;rounded=0;orthogonalLoop=1;jettySize=auto;html=1;exitX=0;exitY=0;exitDx=0;exitDy=48.5;exitPerimeter=0;fillColor=#f8cecc;strokeColor=#b85450;" edge="1" parent="1" source="4fz09WtrM1QGdSj1qNqo-15">
          <mxGeometry relative="1" as="geometry">
            <mxPoint x="600" y="877" as="targetPoint" />
            <Array as="points">
              <mxPoint x="990" y="470" />
              <mxPoint x="790" y="470" />
              <mxPoint x="790" y="877" />
            </Array>
          </mxGeometry>
        </mxCell>
        <mxCell id="4fz09WtrM1QGdSj1qNqo-22" style="edgeStyle=orthogonalEdgeStyle;rounded=0;orthogonalLoop=1;jettySize=auto;html=1;exitX=0;exitY=0;exitDx=0;exitDy=48.5;exitPerimeter=0;entryX=0;entryY=0;entryDx=190;entryDy=77;entryPerimeter=0;fillColor=#f8cecc;strokeColor=#b85450;" edge="1" parent="1" source="4fz09WtrM1QGdSj1qNqo-15" target="4fz09WtrM1QGdSj1qNqo-3">
          <mxGeometry relative="1" as="geometry">
            <Array as="points">
              <mxPoint x="990" y="460" />
              <mxPoint x="915" y="460" />
              <mxPoint x="915" y="1017" />
            </Array>
          </mxGeometry>
        </mxCell>
        <mxCell id="4fz09WtrM1QGdSj1qNqo-23" style="edgeStyle=orthogonalEdgeStyle;rounded=0;orthogonalLoop=1;jettySize=auto;html=1;exitX=0;exitY=0;exitDx=0;exitDy=14;exitPerimeter=0;entryX=0;entryY=0;entryDx=190;entryDy=108.5;entryPerimeter=0;fillColor=#dae8fc;strokeColor=#6c8ebf;" edge="1" parent="1" source="4fz09WtrM1QGdSj1qNqo-16" target="4fz09WtrM1QGdSj1qNqo-4">
          <mxGeometry relative="1" as="geometry">
            <Array as="points">
              <mxPoint x="890" y="538" />
              <mxPoint x="890" y="243" />
            </Array>
          </mxGeometry>
        </mxCell>
        <mxCell id="4fz09WtrM1QGdSj1qNqo-24" style="edgeStyle=orthogonalEdgeStyle;rounded=0;orthogonalLoop=1;jettySize=auto;html=1;exitX=0;exitY=0;exitDx=0;exitDy=25.5;exitPerimeter=0;fillColor=#dae8fc;strokeColor=#6c8ebf;" edge="1" parent="1" source="4fz09WtrM1QGdSj1qNqo-16">
          <mxGeometry relative="1" as="geometry">
            <mxPoint x="590" y="349" as="targetPoint" />
            <Array as="points">
              <mxPoint x="850" y="549" />
              <mxPoint x="850" y="349" />
            </Array>
          </mxGeometry>
        </mxCell>
        <mxCell id="4fz09WtrM1QGdSj1qNqo-25" style="edgeStyle=orthogonalEdgeStyle;rounded=0;orthogonalLoop=1;jettySize=auto;html=1;exitX=0;exitY=0;exitDx=0;exitDy=37;exitPerimeter=0;fillColor=#dae8fc;strokeColor=#6c8ebf;" edge="1" parent="1" source="4fz09WtrM1QGdSj1qNqo-16">
          <mxGeometry relative="1" as="geometry">
            <mxPoint x="589" y="500" as="targetPoint" />
            <Array as="points">
              <mxPoint x="820" y="561" />
              <mxPoint x="820" y="504" />
            </Array>
          </mxGeometry>
        </mxCell>
        <mxCell id="4fz09WtrM1QGdSj1qNqo-26" style="edgeStyle=orthogonalEdgeStyle;rounded=0;orthogonalLoop=1;jettySize=auto;html=1;exitX=0;exitY=0;exitDx=0;exitDy=48.5;exitPerimeter=0;fillColor=#dae8fc;strokeColor=#6c8ebf;" edge="1" parent="1" source="4fz09WtrM1QGdSj1qNqo-16">
          <mxGeometry relative="1" as="geometry">
            <mxPoint x="590" y="646" as="targetPoint" />
            <Array as="points">
              <mxPoint x="810" y="573" />
              <mxPoint x="810" y="645" />
            </Array>
          </mxGeometry>
        </mxCell>
        <mxCell id="4fz09WtrM1QGdSj1qNqo-27" style="edgeStyle=orthogonalEdgeStyle;rounded=0;orthogonalLoop=1;jettySize=auto;html=1;exitX=0;exitY=0;exitDx=0;exitDy=48.5;exitPerimeter=0;fillColor=#dae8fc;strokeColor=#6c8ebf;" edge="1" parent="1" source="4fz09WtrM1QGdSj1qNqo-16">
          <mxGeometry relative="1" as="geometry">
            <mxPoint x="600" y="846" as="targetPoint" />
            <Array as="points">
              <mxPoint x="990" y="590" />
              <mxPoint x="850" y="590" />
              <mxPoint x="850" y="846" />
            </Array>
          </mxGeometry>
        </mxCell>
        <mxCell id="4fz09WtrM1QGdSj1qNqo-28" style="edgeStyle=orthogonalEdgeStyle;rounded=0;orthogonalLoop=1;jettySize=auto;html=1;exitX=0;exitY=0;exitDx=0;exitDy=60;exitPerimeter=0;entryX=0;entryY=0;entryDx=190;entryDy=45.5;entryPerimeter=0;fillColor=#dae8fc;strokeColor=#6c8ebf;" edge="1" parent="1" source="4fz09WtrM1QGdSj1qNqo-16" target="4fz09WtrM1QGdSj1qNqo-3">
          <mxGeometry relative="1" as="geometry">
            <Array as="points">
              <mxPoint x="870" y="584" />
              <mxPoint x="870" y="985" />
            </Array>
          </mxGeometry>
        </mxCell>
        <mxCell id="4fz09WtrM1QGdSj1qNqo-31" style="edgeStyle=orthogonalEdgeStyle;rounded=0;orthogonalLoop=1;jettySize=auto;html=1;exitX=0.5;exitY=1;exitDx=0;exitDy=0;exitPerimeter=0;entryX=0;entryY=0;entryDx=115;entryDy=14;entryPerimeter=0;" edge="1" parent="1" source="4fz09WtrM1QGdSj1qNqo-16" target="4fz09WtrM1QGdSj1qNqo-14">
          <mxGeometry relative="1" as="geometry" />
        </mxCell>
        <mxCell id="4fz09WtrM1QGdSj1qNqo-32" value="Route Request for auth" style="edgeLabel;html=1;align=center;verticalAlign=middle;resizable=0;points=[];" vertex="1" connectable="0" parent="4fz09WtrM1QGdSj1qNqo-31">
          <mxGeometry x="0.26" y="-5" relative="1" as="geometry">
            <mxPoint y="-17" as="offset" />
          </mxGeometry>
        </mxCell>
        <mxCell id="4fz09WtrM1QGdSj1qNqo-33" style="edgeStyle=orthogonalEdgeStyle;rounded=0;orthogonalLoop=1;jettySize=auto;html=1;exitX=0;exitY=0;exitDx=190;exitDy=14;exitPerimeter=0;entryX=0;entryY=0;entryDx=190;entryDy=60;entryPerimeter=0;" edge="1" parent="1" source="4fz09WtrM1QGdSj1qNqo-14" target="4fz09WtrM1QGdSj1qNqo-16">
          <mxGeometry relative="1" as="geometry" />
        </mxCell>
        <mxCell id="4fz09WtrM1QGdSj1qNqo-34" value="Return auth Response" style="edgeLabel;html=1;align=center;verticalAlign=middle;resizable=0;points=[];" vertex="1" connectable="0" parent="4fz09WtrM1QGdSj1qNqo-33">
          <mxGeometry x="-0.0999" relative="1" as="geometry">
            <mxPoint as="offset" />
          </mxGeometry>
        </mxCell>
        <mxCell id="4fz09WtrM1QGdSj1qNqo-35" value="Bin Controller&amp;nbsp;" style="shape=folder;fontStyle=1;spacingTop=10;tabWidth=40;tabHeight=14;tabPosition=left;html=1;whiteSpace=wrap;" vertex="1" parent="1">
          <mxGeometry x="630" y="160" width="100" height="30" as="geometry" />
        </mxCell>
        <mxCell id="4fz09WtrM1QGdSj1qNqo-36" value="Bin Service" style="shape=folder;fontStyle=1;spacingTop=10;tabWidth=40;tabHeight=14;tabPosition=left;html=1;whiteSpace=wrap;" vertex="1" parent="1">
          <mxGeometry x="750" y="190" width="77" height="40" as="geometry" />
        </mxCell>
        <mxCell id="4fz09WtrM1QGdSj1qNqo-37" value="Bin repository" style="shape=folder;fontStyle=1;spacingTop=10;tabWidth=40;tabHeight=14;tabPosition=left;html=1;whiteSpace=wrap;" vertex="1" parent="1">
          <mxGeometry x="640" y="240" width="90" height="30" as="geometry" />
        </mxCell>
        <mxCell id="4fz09WtrM1QGdSj1qNqo-43" value="User Controller" style="shape=folder;fontStyle=1;spacingTop=10;tabWidth=40;tabHeight=14;tabPosition=left;html=1;whiteSpace=wrap;" vertex="1" parent="1">
          <mxGeometry x="380" y="440" width="90" height="40" as="geometry" />
        </mxCell>
        <mxCell id="4fz09WtrM1QGdSj1qNqo-44" value="User Repository" style="shape=folder;fontStyle=1;spacingTop=10;tabWidth=40;tabHeight=14;tabPosition=left;html=1;whiteSpace=wrap;" vertex="1" parent="1">
          <mxGeometry x="490" y="450" width="90" height="40" as="geometry" />
        </mxCell>
        <mxCell id="4fz09WtrM1QGdSj1qNqo-45" value="User Service" style="shape=folder;fontStyle=1;spacingTop=10;tabWidth=40;tabHeight=14;tabPosition=left;html=1;whiteSpace=wrap;" vertex="1" parent="1">
          <mxGeometry x="380" y="490" width="90" height="30" as="geometry" />
        </mxCell>
        <mxCell id="4fz09WtrM1QGdSj1qNqo-46" value="Auth Middleware" style="shape=folder;fontStyle=1;spacingTop=10;tabWidth=40;tabHeight=14;tabPosition=left;html=1;whiteSpace=wrap;" vertex="1" parent="1">
          <mxGeometry x="490" y="510" width="90" height="46" as="geometry" />
        </mxCell>
        <mxCell id="4fz09WtrM1QGdSj1qNqo-55" value="IoT Device handler Component" style="shape=folder;fontStyle=1;spacingTop=10;tabWidth=40;tabHeight=14;tabPosition=left;html=1;whiteSpace=wrap;" vertex="1" parent="1">
          <mxGeometry x="645" y="960" width="160" height="50" as="geometry" />
        </mxCell>
        <mxCell id="4fz09WtrM1QGdSj1qNqo-56" value="Data Ingestion Service Component" style="shape=folder;fontStyle=1;spacingTop=10;tabWidth=40;tabHeight=14;tabPosition=left;html=1;whiteSpace=wrap;" vertex="1" parent="1">
          <mxGeometry x="647" y="1020" width="153" height="40" as="geometry" />
        </mxCell>
        <mxCell id="4fz09WtrM1QGdSj1qNqo-57" value="Data Processor Component" style="shape=folder;fontStyle=1;spacingTop=10;tabWidth=40;tabHeight=14;tabPosition=left;html=1;whiteSpace=wrap;" vertex="1" parent="1">
          <mxGeometry x="647" y="1070" width="153" height="40" as="geometry" />
        </mxCell>
        <mxCell id="4fz09WtrM1QGdSj1qNqo-59" value="Guide Sevice&amp;nbsp;" style="shape=folder;fontStyle=1;spacingTop=10;tabWidth=40;tabHeight=14;tabPosition=left;html=1;whiteSpace=wrap;" vertex="1" parent="1">
          <mxGeometry x="375" y="820" width="85" height="40" as="geometry" />
        </mxCell>
        <mxCell id="4fz09WtrM1QGdSj1qNqo-60" value="Guide Controller" style="shape=folder;fontStyle=1;spacingTop=10;tabWidth=40;tabHeight=14;tabPosition=left;html=1;whiteSpace=wrap;" vertex="1" parent="1">
          <mxGeometry x="480" y="860" width="100" height="45" as="geometry" />
        </mxCell>
        <mxCell id="4fz09WtrM1QGdSj1qNqo-63" value="Guide Repository" style="shape=folder;fontStyle=1;spacingTop=10;tabWidth=40;tabHeight=14;tabPosition=left;html=1;whiteSpace=wrap;" vertex="1" parent="1">
          <mxGeometry x="380" y="910" width="100" height="45" as="geometry" />
        </mxCell>
        <mxCell id="4fz09WtrM1QGdSj1qNqo-64" value="Notification Service" style="shape=folder;fontStyle=1;spacingTop=10;tabWidth=40;tabHeight=14;tabPosition=left;html=1;whiteSpace=wrap;" vertex="1" parent="1">
          <mxGeometry x="382.5" y="630" width="70" height="50" as="geometry" />
        </mxCell>
        <mxCell id="4fz09WtrM1QGdSj1qNqo-65" value="Notification Repository" style="shape=folder;fontStyle=1;spacingTop=10;tabWidth=40;tabHeight=14;tabPosition=left;html=1;whiteSpace=wrap;" vertex="1" parent="1">
          <mxGeometry x="445" y="690" width="70" height="50" as="geometry" />
        </mxCell>
        <mxCell id="4fz09WtrM1QGdSj1qNqo-66" value="Notification Controller" style="shape=folder;fontStyle=1;spacingTop=10;tabWidth=40;tabHeight=14;tabPosition=left;html=1;whiteSpace=wrap;" vertex="1" parent="1">
          <mxGeometry x="500" y="630" width="70" height="50" as="geometry" />
        </mxCell>
        <mxCell id="4fz09WtrM1QGdSj1qNqo-68" value="Schedule Manager" style="shape=folder;fontStyle=1;spacingTop=10;tabWidth=40;tabHeight=14;tabPosition=left;html=1;whiteSpace=wrap;" vertex="1" parent="1">
          <mxGeometry x="419.75" y="260" width="120.5" height="40" as="geometry" />
        </mxCell>
        <mxCell id="4fz09WtrM1QGdSj1qNqo-69" value="Complaint Manager" style="shape=folder;fontStyle=1;spacingTop=10;tabWidth=18;tabHeight=10;tabPosition=left;html=1;whiteSpace=wrap;" vertex="1" parent="1">
          <mxGeometry x="419.75" y="320" width="120.5" height="40" as="geometry" />
        </mxCell>
        <mxCell id="4fz09WtrM1QGdSj1qNqo-73" value="&lt;b&gt;&lt;font style=&quot;font-size: 14px;&quot;&gt;Notification Service&lt;/font&gt;&lt;/b&gt;" style="text;html=1;align=center;verticalAlign=middle;resizable=0;points=[];autosize=1;strokeColor=none;fillColor=none;" vertex="1" parent="1">
          <mxGeometry x="409.75" y="590" width="150" height="30" as="geometry" />
        </mxCell>
        <mxCell id="4fz09WtrM1QGdSj1qNqo-79" value="&lt;b&gt;&lt;font style=&quot;font-size: 14px;&quot;&gt;Bin Service&lt;/font&gt;&lt;/b&gt;" style="text;html=1;align=center;verticalAlign=middle;resizable=0;points=[];autosize=1;strokeColor=none;fillColor=none;" vertex="1" parent="1">
          <mxGeometry x="680" y="120" width="100" height="30" as="geometry" />
        </mxCell>
        <mxCell id="4fz09WtrM1QGdSj1qNqo-80" value="&lt;b&gt;&lt;font style=&quot;font-size: 14px;&quot;&gt;Operations Service&lt;/font&gt;&lt;/b&gt;" style="text;html=1;align=center;verticalAlign=middle;resizable=0;points=[];autosize=1;strokeColor=none;fillColor=none;" vertex="1" parent="1">
          <mxGeometry x="409.75" y="220" width="150" height="30" as="geometry" />
        </mxCell>
        <mxCell id="4fz09WtrM1QGdSj1qNqo-81" value="&lt;b&gt;&lt;font style=&quot;font-size: 14px;&quot;&gt;Guide Service&lt;/font&gt;&lt;/b&gt;" style="text;html=1;align=center;verticalAlign=middle;resizable=0;points=[];autosize=1;strokeColor=none;fillColor=none;" vertex="1" parent="1">
          <mxGeometry x="419.75" y="790" width="120" height="30" as="geometry" />
        </mxCell>
        <mxCell id="4fz09WtrM1QGdSj1qNqo-82" value="&lt;b&gt;&lt;font style=&quot;font-size: 14px;&quot;&gt;User Service&lt;/font&gt;&lt;/b&gt;" style="text;html=1;align=center;verticalAlign=middle;resizable=0;points=[];autosize=1;strokeColor=none;fillColor=none;" vertex="1" parent="1">
          <mxGeometry x="424.75" y="400" width="110" height="30" as="geometry" />
        </mxCell>
        <mxCell id="4fz09WtrM1QGdSj1qNqo-85" style="edgeStyle=orthogonalEdgeStyle;rounded=0;orthogonalLoop=1;jettySize=auto;html=1;exitX=0;exitY=0;exitDx=0;exitDy=20.5;exitPerimeter=0;entryX=0.25;entryY=1;entryDx=0;entryDy=0;entryPerimeter=0;" edge="1" parent="1" source="4fz09WtrM1QGdSj1qNqo-56" target="4fz09WtrM1QGdSj1qNqo-36">
          <mxGeometry relative="1" as="geometry">
            <Array as="points">
              <mxPoint x="620" y="1041" />
              <mxPoint x="620" y="625" />
              <mxPoint x="769" y="625" />
            </Array>
          </mxGeometry>
        </mxCell>
        <mxCell id="4fz09WtrM1QGdSj1qNqo-86" value="Update Bin&amp;nbsp;&lt;div&gt;Status&lt;/div&gt;" style="edgeLabel;html=1;align=center;verticalAlign=middle;resizable=0;points=[];" vertex="1" connectable="0" parent="4fz09WtrM1QGdSj1qNqo-85">
          <mxGeometry x="-0.6866" y="-1" relative="1" as="geometry">
            <mxPoint x="-1" y="-124" as="offset" />
          </mxGeometry>
        </mxCell>
        <mxCell id="4fz09WtrM1QGdSj1qNqo-88" style="edgeStyle=orthogonalEdgeStyle;rounded=0;orthogonalLoop=1;jettySize=auto;html=1;exitX=0;exitY=0;exitDx=0;exitDy=33.5;exitPerimeter=0;entryX=0;entryY=0;entryDx=0;entryDy=32;entryPerimeter=0;" edge="1" parent="1" source="4fz09WtrM1QGdSj1qNqo-56" target="4fz09WtrM1QGdSj1qNqo-64">
          <mxGeometry relative="1" as="geometry">
            <Array as="points">
              <mxPoint x="340" y="1053" />
              <mxPoint x="340" y="662" />
            </Array>
          </mxGeometry>
        </mxCell>
        <mxCell id="4fz09WtrM1QGdSj1qNqo-89" value="Send Data Aerts" style="edgeLabel;html=1;align=center;verticalAlign=middle;resizable=0;points=[];" vertex="1" connectable="0" parent="4fz09WtrM1QGdSj1qNqo-88">
          <mxGeometry x="-0.3159" y="1" relative="1" as="geometry">
            <mxPoint as="offset" />
          </mxGeometry>
        </mxCell>
        <mxCell id="4fz09WtrM1QGdSj1qNqo-90" style="edgeStyle=orthogonalEdgeStyle;rounded=0;orthogonalLoop=1;jettySize=auto;html=1;exitX=0;exitY=0;exitDx=0;exitDy=18;exitPerimeter=0;entryX=0;entryY=0;entryDx=0;entryDy=23;entryPerimeter=0;" edge="1" parent="1" source="4fz09WtrM1QGdSj1qNqo-35" target="4fz09WtrM1QGdSj1qNqo-64">
          <mxGeometry relative="1" as="geometry">
            <Array as="points">
              <mxPoint x="340" y="178" />
              <mxPoint x="340" y="653" />
            </Array>
          </mxGeometry>
        </mxCell>
        <mxCell id="4fz09WtrM1QGdSj1qNqo-91" value="Trigger Bin Alerts" style="edgeLabel;html=1;align=center;verticalAlign=middle;resizable=0;points=[];" vertex="1" connectable="0" parent="4fz09WtrM1QGdSj1qNqo-90">
          <mxGeometry x="-0.7307" y="1" relative="1" as="geometry">
            <mxPoint x="1" as="offset" />
          </mxGeometry>
        </mxCell>
        <mxCell id="4fz09WtrM1QGdSj1qNqo-92" style="edgeStyle=orthogonalEdgeStyle;rounded=0;orthogonalLoop=1;jettySize=auto;html=1;exitX=0;exitY=0;exitDx=120.5;exitDy=20.5;exitPerimeter=0;entryX=0;entryY=0;entryDx=0;entryDy=49.375;entryPerimeter=0;" edge="1" parent="1" source="4fz09WtrM1QGdSj1qNqo-68" target="4fz09WtrM1QGdSj1qNqo-4">
          <mxGeometry relative="1" as="geometry" />
        </mxCell>
        <mxCell id="4fz09WtrM1QGdSj1qNqo-93" value="Get Bin status" style="edgeLabel;html=1;align=center;verticalAlign=middle;resizable=0;points=[];" vertex="1" connectable="0" parent="4fz09WtrM1QGdSj1qNqo-92">
          <mxGeometry x="0.324" y="2" relative="1" as="geometry">
            <mxPoint as="offset" />
          </mxGeometry>
        </mxCell>
        <mxCell id="4fz09WtrM1QGdSj1qNqo-94" style="edgeStyle=orthogonalEdgeStyle;rounded=0;orthogonalLoop=1;jettySize=auto;html=1;exitX=0.25;exitY=1;exitDx=0;exitDy=0;exitPerimeter=0;entryX=0;entryY=0;entryDx=40;entryDy=14;entryPerimeter=0;" edge="1" parent="1" source="4fz09WtrM1QGdSj1qNqo-69" target="4fz09WtrM1QGdSj1qNqo-43">
          <mxGeometry relative="1" as="geometry" />
        </mxCell>
        <mxCell id="4fz09WtrM1QGdSj1qNqo-95" value="Fetch User Data" style="edgeLabel;html=1;align=center;verticalAlign=middle;resizable=0;points=[];" vertex="1" connectable="0" parent="4fz09WtrM1QGdSj1qNqo-94">
          <mxGeometry x="-0.4199" y="-1" relative="1" as="geometry">
            <mxPoint x="4" y="-5" as="offset" />
          </mxGeometry>
        </mxCell>
        <mxCell id="4fz09WtrM1QGdSj1qNqo-96" style="edgeStyle=orthogonalEdgeStyle;rounded=0;orthogonalLoop=1;jettySize=auto;html=1;exitX=0;exitY=0;exitDx=70;exitDy=32;exitPerimeter=0;entryX=0;entryY=0;entryDx=0;entryDy=27;entryPerimeter=0;" edge="1" parent="1" source="4fz09WtrM1QGdSj1qNqo-64" target="4fz09WtrM1QGdSj1qNqo-43">
          <mxGeometry relative="1" as="geometry">
            <Array as="points">
              <mxPoint x="473" y="662" />
              <mxPoint x="473" y="580" />
              <mxPoint x="320" y="580" />
              <mxPoint x="320" y="467" />
            </Array>
          </mxGeometry>
        </mxCell>
        <mxCell id="4fz09WtrM1QGdSj1qNqo-97" value="Send Notifications" style="edgeLabel;html=1;align=center;verticalAlign=middle;resizable=0;points=[];" vertex="1" connectable="0" parent="4fz09WtrM1QGdSj1qNqo-96">
          <mxGeometry x="-0.115" y="2" relative="1" as="geometry">
            <mxPoint as="offset" />
          </mxGeometry>
        </mxCell>
        <mxCell id="4fz09WtrM1QGdSj1qNqo-98" value="&lt;b&gt;&lt;font style=&quot;font-size: 14px;&quot;&gt;Data Service&lt;/font&gt;&lt;/b&gt;" style="text;html=1;align=center;verticalAlign=middle;resizable=0;points=[];autosize=1;strokeColor=none;fillColor=none;" vertex="1" parent="1">
          <mxGeometry x="675" y="930" width="110" height="30" as="geometry" />
        </mxCell>
      </root>
    </mxGraphModel>
  </diagram>
</mxfile>
